<?xml version="1.0" standalone="no"?>
<!DOCTYPE svg PUBLIC "-//W3C//DTD SVG 20010904//EN"
 "http://www.w3.org/TR/2001/REC-SVG-20010904/DTD/svg10.dtd">
<svg version="1.0" xmlns="http://www.w3.org/2000/svg"
 width="1280.000000pt" height="640.000000pt" viewBox="0 0 1280.000000 640.000000"
 preserveAspectRatio="xMidYMid meet">
<metadata>
Created by potrace 1.15, written by Peter Selinger 2001-2017
</metadata>
<g transform="translate(0.000000,640.000000) scale(0.100000,-0.100000)"
fill="#000000" stroke="none">
<path d="M11675 5823 c-186 -40 -330 -120 -498 -280 -337 -320 -451 -508 -472
-785 -8 -100 1 -177 60 -486 67 -351 62 -458 -30 -559 -23 -27 -68 -65 -99
-87 l-56 -38 -127 5 c-144 5 -204 20 -278 69 -28 18 -149 130 -270 248 -249
244 -321 307 -419 374 -253 172 -507 221 -811 157 -177 -38 -314 -99 -490
-218 -129 -88 -172 -127 -230 -208 -120 -169 -180 -378 -192 -670 -8 -211 8
-270 142 -499 35 -61 87 -166 114 -233 28 -67 77 -175 109 -240 92 -184 106
-231 107 -349 0 -95 -2 -103 -28 -137 -34 -45 -120 -111 -217 -167 -41 -24
-93 -56 -115 -71 -61 -43 -151 -62 -285 -61 -136 0 -216 16 -400 79 -342 116
-491 221 -585 413 -60 124 -79 215 -72 344 9 171 53 294 219 610 168 320 209
429 243 656 20 127 19 413 0 549 -44 297 -156 631 -265 790 -183 266 -424 464
-713 587 -119 50 -199 68 -397 89 -323 35 -648 9 -900 -72 -99 -31 -557 -259
-663 -330 -269 -179 -487 -443 -573 -696 -72 -212 -98 -382 -98 -657 0 -271 1
-277 129 -790 51 -206 102 -431 114 -499 45 -267 17 -532 -73 -685 -77 -132
-316 -289 -519 -342 -259 -67 -380 -57 -595 47 -84 41 -117 64 -176 122 -69
70 -73 76 -105 176 -45 139 -77 302 -95 485 -19 184 -48 918 -40 990 13 110
-28 366 -83 511 -87 232 -206 400 -408 577 -160 140 -278 182 -510 181 -128 0
-164 -4 -247 -26 -229 -61 -384 -143 -513 -272 -146 -146 -232 -319 -256 -518
-12 -94 -11 -98 16 -182 43 -132 126 -230 224 -263 58 -20 201 -12 271 14 9 4
-12 15 -52 29 -85 29 -192 100 -256 170 -44 47 -51 62 -61 119 -19 109 11 240
79 346 54 85 209 214 323 270 94 46 188 62 377 63 188 1 270 -15 390 -79 85
-45 107 -66 162 -151 26 -39 63 -89 83 -112 91 -101 185 -453 185 -694 0 -139
-7 -192 -64 -512 -66 -374 -82 -548 -66 -730 31 -368 147 -671 334 -873 147
-158 444 -314 706 -369 114 -23 347 -24 443 0 411 102 728 245 886 399 171
167 347 593 406 983 18 117 21 553 5 680 -12 92 -18 126 -70 407 -53 284 -66
426 -51 561 25 227 81 333 264 497 188 170 349 262 507 290 36 6 94 25 128 43
56 27 76 31 171 35 106 4 107 4 180 -32 243 -120 430 -342 462 -548 7 -44 9
-131 6 -218 -6 -157 -29 -274 -85 -426 -39 -105 -151 -329 -237 -474 -177
-298 -232 -502 -222 -820 8 -245 60 -458 164 -665 70 -138 138 -222 382 -466
401 -400 525 -473 1019 -590 l183 -43 172 12 c499 35 901 123 1162 255 147 73
362 240 455 351 124 149 188 299 214 501 52 397 -36 738 -335 1295 -94 176
-129 274 -129 364 0 101 26 148 102 187 57 29 116 34 183 14 145 -42 253 -120
402 -288 256 -289 312 -333 521 -416 168 -66 249 -83 392 -83 193 0 313 35
493 142 275 163 457 348 557 564 75 159 85 210 85 406 -1 174 -1 176 -52 400
-28 124 -56 257 -62 297 -25 165 -7 306 55 424 l38 71 45 -4 c27 -3 87 -25
146 -53 94 -46 104 -48 175 -47 41 1 100 2 130 3 31 0 102 -11 160 -26 169
-43 270 -25 270 49 0 19 -6 37 -12 40 -30 14 77 -4 146 -24 l76 -23 -6 -37
c-5 -32 -3 -39 14 -44 13 -4 41 2 70 14 28 12 64 20 82 18 46 -4 62 22 34 54
-12 13 -34 44 -49 71 -28 49 -56 61 -73 30 -9 -16 -18 -15 -123 6 -196 39
-350 79 -304 80 22 0 81 -6 130 -14 142 -23 231 -20 293 11 29 14 52 32 52 39
0 7 7 18 15 25 22 18 18 39 -10 52 -15 7 -27 22 -31 42 -9 42 -29 63 -94 96
-30 15 -89 57 -131 93 -97 83 -131 101 -181 94 -37 -5 -40 -3 -58 33 -25 50
-70 85 -172 138 -125 63 -229 76 -373 45z"/>
</g>
</svg>
